<mxfile>
    <diagram id="UTpa0vSlOsTXCOfH_6tE" name="Page-1">
        <mxGraphModel dx="564" dy="478" grid="1" gridSize="10" guides="1" tooltips="1" connect="1" arrows="1" fold="1" page="1" pageScale="1" pageWidth="827" pageHeight="1169" math="0" shadow="0">
            <root>
                <mxCell id="0"/>
                <mxCell id="1" parent="0"/>
                <mxCell id="15" style="edgeStyle=orthogonalEdgeStyle;rounded=0;orthogonalLoop=1;jettySize=auto;html=1;exitX=0.5;exitY=1;exitDx=0;exitDy=0;dashed=1;endArrow=none;endFill=0;" parent="1" source="16" edge="1">
                    <mxGeometry relative="1" as="geometry">
                        <mxPoint x="605" y="480" as="targetPoint"/>
                    </mxGeometry>
                </mxCell>
                <mxCell id="12" style="edgeStyle=orthogonalEdgeStyle;rounded=0;orthogonalLoop=1;jettySize=auto;html=1;exitX=0.5;exitY=1;exitDx=0;exitDy=0;dashed=1;endArrow=none;endFill=0;" parent="1" source="11" edge="1">
                    <mxGeometry relative="1" as="geometry">
                        <mxPoint x="445" y="480" as="targetPoint"/>
                    </mxGeometry>
                </mxCell>
                <mxCell id="10" style="edgeStyle=orthogonalEdgeStyle;rounded=0;orthogonalLoop=1;jettySize=auto;html=1;exitX=0.5;exitY=1;exitDx=0;exitDy=0;dashed=1;endArrow=none;endFill=0;" parent="1" source="9" edge="1">
                    <mxGeometry relative="1" as="geometry">
                        <mxPoint x="285" y="480" as="targetPoint"/>
                    </mxGeometry>
                </mxCell>
                <mxCell id="8" style="edgeStyle=orthogonalEdgeStyle;rounded=0;orthogonalLoop=1;jettySize=auto;html=1;dashed=1;endArrow=none;endFill=0;" parent="1" source="3" edge="1">
                    <mxGeometry relative="1" as="geometry">
                        <mxPoint x="125" y="480" as="targetPoint"/>
                    </mxGeometry>
                </mxCell>
                <mxCell id="6" style="edgeStyle=orthogonalEdgeStyle;rounded=0;orthogonalLoop=1;jettySize=auto;html=1;entryX=0;entryY=0.19;entryDx=0;entryDy=0;entryPerimeter=0;endArrow=openAsync;endFill=0;" parent="1" edge="1">
                    <mxGeometry relative="1" as="geometry">
                        <mxPoint x="130" y="179.89999999999998" as="sourcePoint"/>
                        <mxPoint x="280" y="179.89999999999998" as="targetPoint"/>
                        <Array as="points">
                            <mxPoint x="160" y="179"/>
                        </Array>
                    </mxGeometry>
                </mxCell>
                <mxCell id="2" value="" style="html=1;points=[];perimeter=orthogonalPerimeter;" parent="1" vertex="1">
                    <mxGeometry x="120" y="160" width="10" height="280" as="geometry"/>
                </mxCell>
                <mxCell id="3" value="Usuario" style="shape=umlActor;verticalLabelPosition=bottom;verticalAlign=top;html=1;" parent="1" vertex="1">
                    <mxGeometry x="110" y="50" width="30" height="60" as="geometry"/>
                </mxCell>
                <mxCell id="17" style="edgeStyle=orthogonalEdgeStyle;rounded=0;orthogonalLoop=1;jettySize=auto;html=1;endArrow=openAsync;endFill=0;entryX=0;entryY=0.127;entryDx=0;entryDy=0;entryPerimeter=0;" parent="1" source="5" target="11" edge="1">
                    <mxGeometry relative="1" as="geometry">
                        <mxPoint x="400" y="224" as="targetPoint"/>
                        <Array as="points">
                            <mxPoint x="330" y="199"/>
                        </Array>
                    </mxGeometry>
                </mxCell>
                <mxCell id="5" value="" style="html=1;points=[];perimeter=orthogonalPerimeter;" parent="1" vertex="1">
                    <mxGeometry x="280" y="160" width="10" height="280" as="geometry"/>
                </mxCell>
                <mxCell id="7" value="1. Elegir lecci贸n ()" style="text;html=1;align=center;verticalAlign=middle;resizable=0;points=[];autosize=1;" parent="1" vertex="1">
                    <mxGeometry x="145" y="160" width="110" height="20" as="geometry"/>
                </mxCell>
                <mxCell id="9" value="&lt;u&gt;:Interfaz&lt;/u&gt;" style="html=1;" parent="1" vertex="1">
                    <mxGeometry x="230" y="70" width="110" height="50" as="geometry"/>
                </mxCell>
                <mxCell id="13" value="&lt;u&gt;:Lecciones&lt;/u&gt;" style="html=1;" parent="1" vertex="1">
                    <mxGeometry x="390" y="70" width="110" height="50" as="geometry"/>
                </mxCell>
                <mxCell id="27" style="edgeStyle=orthogonalEdgeStyle;rounded=0;orthogonalLoop=1;jettySize=auto;html=1;dashed=1;endArrow=classic;endFill=1;strokeWidth=2;exitX=0.052;exitY=0.458;exitDx=0;exitDy=0;exitPerimeter=0;entryX=1.078;entryY=0.453;entryDx=0;entryDy=0;entryPerimeter=0;" parent="1" source="14" target="11" edge="1">
                    <mxGeometry relative="1" as="geometry">
                        <mxPoint x="480" y="310" as="targetPoint"/>
                        <Array as="points">
                            <mxPoint x="601" y="290"/>
                            <mxPoint x="451" y="290"/>
                        </Array>
                    </mxGeometry>
                </mxCell>
                <mxCell id="14" value="" style="html=1;points=[];perimeter=orthogonalPerimeter;" parent="1" vertex="1">
                    <mxGeometry x="600" y="160" width="10" height="280" as="geometry"/>
                </mxCell>
                <mxCell id="16" value="&lt;u&gt;:BD&lt;/u&gt;" style="html=1;" parent="1" vertex="1">
                    <mxGeometry x="550" y="70" width="110" height="50" as="geometry"/>
                </mxCell>
                <mxCell id="18" value="2. Consultar&lt;br&gt;lecci贸n ()" style="text;html=1;align=center;verticalAlign=middle;resizable=0;points=[];autosize=1;" parent="1" vertex="1">
                    <mxGeometry x="320" y="165" width="80" height="30" as="geometry"/>
                </mxCell>
                <mxCell id="20" style="edgeStyle=orthogonalEdgeStyle;rounded=0;orthogonalLoop=1;jettySize=auto;html=1;endArrow=openAsync;endFill=0;entryX=0;entryY=0.195;entryDx=0;entryDy=0;entryPerimeter=0;" parent="1" edge="1">
                    <mxGeometry relative="1" as="geometry">
                        <mxPoint x="450" y="220" as="sourcePoint"/>
                        <mxPoint x="600" y="220" as="targetPoint"/>
                        <Array as="points">
                            <mxPoint x="490" y="220"/>
                            <mxPoint x="490" y="220"/>
                        </Array>
                    </mxGeometry>
                </mxCell>
                <mxCell id="21" value="3. Consultar datos ()" style="text;html=1;align=center;verticalAlign=middle;resizable=0;points=[];autosize=1;" parent="1" vertex="1">
                    <mxGeometry x="460" y="195" width="120" height="20" as="geometry"/>
                </mxCell>
                <mxCell id="23" style="edgeStyle=orthogonalEdgeStyle;rounded=0;orthogonalLoop=1;jettySize=auto;html=1;endArrow=openAsync;endFill=0;entryX=1.3;entryY=0.414;entryDx=0;entryDy=0;entryPerimeter=0;" parent="1" source="14" target="14" edge="1">
                    <mxGeometry relative="1" as="geometry">
                        <Array as="points">
                            <mxPoint x="630" y="240"/>
                            <mxPoint x="630" y="276"/>
                        </Array>
                    </mxGeometry>
                </mxCell>
                <mxCell id="24" value="4. Verificar datos ()" style="text;html=1;align=center;verticalAlign=middle;resizable=0;points=[];autosize=1;" parent="1" vertex="1">
                    <mxGeometry x="620" y="220" width="120" height="20" as="geometry"/>
                </mxCell>
                <mxCell id="28" value="5. Lecci贸n encontrada&amp;nbsp;()" style="text;html=1;align=center;verticalAlign=middle;resizable=0;points=[];autosize=1;" parent="1" vertex="1">
                    <mxGeometry x="460" y="265" width="140" height="20" as="geometry"/>
                </mxCell>
                <mxCell id="32" value="6. Cargar&amp;nbsp;lecci贸n ()" style="text;html=1;align=center;verticalAlign=middle;resizable=0;points=[];autosize=1;" parent="1" vertex="1">
                    <mxGeometry x="300" y="292.5" width="120" height="20" as="geometry"/>
                </mxCell>
                <mxCell id="11" value="" style="html=1;points=[];perimeter=orthogonalPerimeter;" parent="1" vertex="1">
                    <mxGeometry x="440" y="165" width="10" height="275" as="geometry"/>
                </mxCell>
                <mxCell id="35" style="edgeStyle=orthogonalEdgeStyle;rounded=0;orthogonalLoop=1;jettySize=auto;html=1;exitX=0.5;exitY=1;exitDx=0;exitDy=0;dashed=1;endArrow=none;endFill=0;" parent="1" source="13" target="11" edge="1">
                    <mxGeometry relative="1" as="geometry">
                        <mxPoint x="445" y="120" as="sourcePoint"/>
                        <mxPoint x="445" y="480" as="targetPoint"/>
                    </mxGeometry>
                </mxCell>
                <mxCell id="37" style="edgeStyle=orthogonalEdgeStyle;rounded=0;orthogonalLoop=1;jettySize=auto;html=1;dashed=1;endArrow=classic;endFill=1;strokeWidth=2;exitX=-0.033;exitY=0.761;exitDx=0;exitDy=0;exitPerimeter=0;entryX=1.167;entryY=0.758;entryDx=0;entryDy=0;entryPerimeter=0;" parent="1" edge="1">
                    <mxGeometry relative="1" as="geometry">
                        <mxPoint x="438" y="319.64" as="sourcePoint"/>
                        <mxPoint x="290" y="320.3399999999999" as="targetPoint"/>
                        <Array as="points">
                            <mxPoint x="290.33000000000004" y="319.27"/>
                        </Array>
                    </mxGeometry>
                </mxCell>
                <mxCell id="jA-4isyJX7njnUFwlpwX-37" value="6. Mostrar lecci贸n&lt;br&gt;y material ()" style="text;html=1;align=center;verticalAlign=middle;resizable=0;points=[];autosize=1;" parent="1" vertex="1">
                    <mxGeometry x="150" y="315" width="110" height="30" as="geometry"/>
                </mxCell>
                <mxCell id="jA-4isyJX7njnUFwlpwX-38" style="edgeStyle=orthogonalEdgeStyle;rounded=0;orthogonalLoop=1;jettySize=auto;html=1;dashed=1;endArrow=classic;endFill=1;strokeWidth=2;exitX=-0.033;exitY=0.761;exitDx=0;exitDy=0;exitPerimeter=0;entryX=1.167;entryY=0.758;entryDx=0;entryDy=0;entryPerimeter=0;" parent="1" edge="1">
                    <mxGeometry relative="1" as="geometry">
                        <mxPoint x="280" y="350" as="sourcePoint"/>
                        <mxPoint x="132" y="350.69999999999993" as="targetPoint"/>
                        <Array as="points">
                            <mxPoint x="132.33000000000004" y="349.63"/>
                        </Array>
                    </mxGeometry>
                </mxCell>
            </root>
        </mxGraphModel>
    </diagram>
    <diagram id="-jZxRLC4S9wv842001ob" name="Page-2">
        <mxGraphModel dx="564" dy="478" grid="1" gridSize="10" guides="1" tooltips="1" connect="1" arrows="1" fold="1" page="1" pageScale="1" pageWidth="827" pageHeight="1169" math="0" shadow="0">
            <root>
                <mxCell id="WA0DGInW2srtDhoLaO1W-0"/>
                <mxCell id="WA0DGInW2srtDhoLaO1W-1" parent="WA0DGInW2srtDhoLaO1W-0"/>
                <mxCell id="2i4LaCo3bFuLr-Ti20YC-0" style="edgeStyle=orthogonalEdgeStyle;rounded=0;orthogonalLoop=1;jettySize=auto;html=1;exitX=0.5;exitY=1;exitDx=0;exitDy=0;dashed=1;endArrow=none;endFill=0;" parent="WA0DGInW2srtDhoLaO1W-1" source="2i4LaCo3bFuLr-Ti20YC-14" edge="1">
                    <mxGeometry relative="1" as="geometry">
                        <mxPoint x="605" y="400" as="targetPoint"/>
                    </mxGeometry>
                </mxCell>
                <mxCell id="2i4LaCo3bFuLr-Ti20YC-1" style="edgeStyle=orthogonalEdgeStyle;rounded=0;orthogonalLoop=1;jettySize=auto;html=1;exitX=0.5;exitY=1;exitDx=0;exitDy=0;dashed=1;endArrow=none;endFill=0;" parent="WA0DGInW2srtDhoLaO1W-1" source="2i4LaCo3bFuLr-Ti20YC-22" edge="1">
                    <mxGeometry relative="1" as="geometry">
                        <mxPoint x="445" y="400" as="targetPoint"/>
                    </mxGeometry>
                </mxCell>
                <mxCell id="2i4LaCo3bFuLr-Ti20YC-2" style="edgeStyle=orthogonalEdgeStyle;rounded=0;orthogonalLoop=1;jettySize=auto;html=1;exitX=0.5;exitY=1;exitDx=0;exitDy=0;dashed=1;endArrow=none;endFill=0;" parent="WA0DGInW2srtDhoLaO1W-1" source="2i4LaCo3bFuLr-Ti20YC-10" edge="1">
                    <mxGeometry relative="1" as="geometry">
                        <mxPoint x="285" y="400" as="targetPoint"/>
                    </mxGeometry>
                </mxCell>
                <mxCell id="2i4LaCo3bFuLr-Ti20YC-3" style="edgeStyle=orthogonalEdgeStyle;rounded=0;orthogonalLoop=1;jettySize=auto;html=1;dashed=1;endArrow=none;endFill=0;" parent="WA0DGInW2srtDhoLaO1W-1" source="2i4LaCo3bFuLr-Ti20YC-6" edge="1">
                    <mxGeometry relative="1" as="geometry">
                        <mxPoint x="125" y="400" as="targetPoint"/>
                    </mxGeometry>
                </mxCell>
                <mxCell id="2i4LaCo3bFuLr-Ti20YC-4" style="edgeStyle=orthogonalEdgeStyle;rounded=0;orthogonalLoop=1;jettySize=auto;html=1;entryX=0;entryY=0.19;entryDx=0;entryDy=0;entryPerimeter=0;endArrow=openAsync;endFill=0;" parent="WA0DGInW2srtDhoLaO1W-1" edge="1">
                    <mxGeometry relative="1" as="geometry">
                        <mxPoint x="130" y="179.9000000000001" as="sourcePoint"/>
                        <mxPoint x="280" y="179.9000000000001" as="targetPoint"/>
                        <Array as="points">
                            <mxPoint x="160" y="179"/>
                        </Array>
                    </mxGeometry>
                </mxCell>
                <mxCell id="2i4LaCo3bFuLr-Ti20YC-5" value="" style="html=1;points=[];perimeter=orthogonalPerimeter;" parent="WA0DGInW2srtDhoLaO1W-1" vertex="1">
                    <mxGeometry x="120" y="160" width="10" height="220" as="geometry"/>
                </mxCell>
                <mxCell id="2i4LaCo3bFuLr-Ti20YC-6" value="Usuario" style="shape=umlActor;verticalLabelPosition=bottom;verticalAlign=top;html=1;" parent="WA0DGInW2srtDhoLaO1W-1" vertex="1">
                    <mxGeometry x="110" y="50" width="30" height="60" as="geometry"/>
                </mxCell>
                <mxCell id="2i4LaCo3bFuLr-Ti20YC-7" style="edgeStyle=orthogonalEdgeStyle;rounded=0;orthogonalLoop=1;jettySize=auto;html=1;endArrow=openAsync;endFill=0;entryX=0;entryY=0.158;entryDx=0;entryDy=0;entryPerimeter=0;" parent="WA0DGInW2srtDhoLaO1W-1" source="2i4LaCo3bFuLr-Ti20YC-8" target="2i4LaCo3bFuLr-Ti20YC-22" edge="1">
                    <mxGeometry relative="1" as="geometry">
                        <mxPoint x="410" y="210" as="targetPoint"/>
                        <Array as="points">
                            <mxPoint x="410" y="199"/>
                            <mxPoint x="410" y="199"/>
                        </Array>
                    </mxGeometry>
                </mxCell>
                <mxCell id="2i4LaCo3bFuLr-Ti20YC-8" value="" style="html=1;points=[];perimeter=orthogonalPerimeter;" parent="WA0DGInW2srtDhoLaO1W-1" vertex="1">
                    <mxGeometry x="280" y="160" width="10" height="220" as="geometry"/>
                </mxCell>
                <mxCell id="2i4LaCo3bFuLr-Ti20YC-9" value="1. Ingresar credenciales ()" style="text;html=1;align=center;verticalAlign=middle;resizable=0;points=[];autosize=1;" parent="WA0DGInW2srtDhoLaO1W-1" vertex="1">
                    <mxGeometry x="130" y="160" width="150" height="20" as="geometry"/>
                </mxCell>
                <mxCell id="2i4LaCo3bFuLr-Ti20YC-10" value="&lt;u&gt;:Interfaz&lt;/u&gt;" style="html=1;" parent="WA0DGInW2srtDhoLaO1W-1" vertex="1">
                    <mxGeometry x="230" y="70" width="110" height="50" as="geometry"/>
                </mxCell>
                <mxCell id="2i4LaCo3bFuLr-Ti20YC-11" value="&lt;u&gt;:Usuarios&lt;/u&gt;" style="html=1;" parent="WA0DGInW2srtDhoLaO1W-1" vertex="1">
                    <mxGeometry x="390" y="70" width="110" height="50" as="geometry"/>
                </mxCell>
                <mxCell id="2i4LaCo3bFuLr-Ti20YC-12" style="edgeStyle=orthogonalEdgeStyle;rounded=0;orthogonalLoop=1;jettySize=auto;html=1;dashed=1;endArrow=classic;endFill=1;strokeWidth=2;exitX=-0.2;exitY=0.595;exitDx=0;exitDy=0;exitPerimeter=0;" parent="WA0DGInW2srtDhoLaO1W-1" source="2i4LaCo3bFuLr-Ti20YC-13" edge="1">
                    <mxGeometry relative="1" as="geometry">
                        <mxPoint x="451" y="290" as="targetPoint"/>
                        <Array as="points">
                            <mxPoint x="601" y="291"/>
                        </Array>
                    </mxGeometry>
                </mxCell>
                <mxCell id="2i4LaCo3bFuLr-Ti20YC-13" value="" style="html=1;points=[];perimeter=orthogonalPerimeter;" parent="WA0DGInW2srtDhoLaO1W-1" vertex="1">
                    <mxGeometry x="600" y="160" width="10" height="220" as="geometry"/>
                </mxCell>
                <mxCell id="2i4LaCo3bFuLr-Ti20YC-14" value="&lt;u&gt;:BD&lt;/u&gt;" style="html=1;" parent="WA0DGInW2srtDhoLaO1W-1" vertex="1">
                    <mxGeometry x="550" y="70" width="110" height="50" as="geometry"/>
                </mxCell>
                <mxCell id="2i4LaCo3bFuLr-Ti20YC-15" value="2. Enviar credenciales ()" style="text;html=1;align=center;verticalAlign=middle;resizable=0;points=[];autosize=1;" parent="WA0DGInW2srtDhoLaO1W-1" vertex="1">
                    <mxGeometry x="290" y="180" width="140" height="20" as="geometry"/>
                </mxCell>
                <mxCell id="2i4LaCo3bFuLr-Ti20YC-16" style="edgeStyle=orthogonalEdgeStyle;rounded=0;orthogonalLoop=1;jettySize=auto;html=1;endArrow=openAsync;endFill=0;entryX=0;entryY=0.195;entryDx=0;entryDy=0;entryPerimeter=0;" parent="WA0DGInW2srtDhoLaO1W-1" edge="1">
                    <mxGeometry relative="1" as="geometry">
                        <mxPoint x="450" y="220" as="sourcePoint"/>
                        <mxPoint x="600" y="220" as="targetPoint"/>
                        <Array as="points">
                            <mxPoint x="490" y="220"/>
                            <mxPoint x="490" y="220"/>
                        </Array>
                    </mxGeometry>
                </mxCell>
                <mxCell id="2i4LaCo3bFuLr-Ti20YC-17" value="3. Comprobar datos&lt;br&gt;existentes&amp;nbsp;()" style="text;html=1;align=center;verticalAlign=middle;resizable=0;points=[];autosize=1;" parent="WA0DGInW2srtDhoLaO1W-1" vertex="1">
                    <mxGeometry x="460" y="190" width="120" height="30" as="geometry"/>
                </mxCell>
                <mxCell id="2i4LaCo3bFuLr-Ti20YC-18" style="edgeStyle=orthogonalEdgeStyle;rounded=0;orthogonalLoop=1;jettySize=auto;html=1;endArrow=openAsync;endFill=0;entryX=1.233;entryY=0.535;entryDx=0;entryDy=0;entryPerimeter=0;" parent="WA0DGInW2srtDhoLaO1W-1" source="2i4LaCo3bFuLr-Ti20YC-13" target="2i4LaCo3bFuLr-Ti20YC-13" edge="1">
                    <mxGeometry relative="1" as="geometry">
                        <Array as="points">
                            <mxPoint x="630" y="240"/>
                            <mxPoint x="630" y="276"/>
                            <mxPoint x="612" y="276"/>
                        </Array>
                        <mxPoint x="660" y="276" as="targetPoint"/>
                    </mxGeometry>
                </mxCell>
                <mxCell id="2i4LaCo3bFuLr-Ti20YC-19" value="4. Verificar datos ()" style="text;html=1;align=center;verticalAlign=middle;resizable=0;points=[];autosize=1;" parent="WA0DGInW2srtDhoLaO1W-1" vertex="1">
                    <mxGeometry x="610" y="220" width="120" height="20" as="geometry"/>
                </mxCell>
                <mxCell id="2i4LaCo3bFuLr-Ti20YC-20" value="5. Datos encontrados ()" style="text;html=1;align=center;verticalAlign=middle;resizable=0;points=[];autosize=1;" parent="WA0DGInW2srtDhoLaO1W-1" vertex="1">
                    <mxGeometry x="450" y="260" width="140" height="20" as="geometry"/>
                </mxCell>
                <mxCell id="2i4LaCo3bFuLr-Ti20YC-21" value="6. Permitir acceso ()" style="text;html=1;align=center;verticalAlign=middle;resizable=0;points=[];autosize=1;" parent="WA0DGInW2srtDhoLaO1W-1" vertex="1">
                    <mxGeometry x="300" y="292.5" width="120" height="20" as="geometry"/>
                </mxCell>
                <mxCell id="2i4LaCo3bFuLr-Ti20YC-22" value="" style="html=1;points=[];perimeter=orthogonalPerimeter;" parent="WA0DGInW2srtDhoLaO1W-1" vertex="1">
                    <mxGeometry x="440" y="165" width="10" height="215" as="geometry"/>
                </mxCell>
                <mxCell id="2i4LaCo3bFuLr-Ti20YC-23" style="edgeStyle=orthogonalEdgeStyle;rounded=0;orthogonalLoop=1;jettySize=auto;html=1;exitX=0.5;exitY=1;exitDx=0;exitDy=0;dashed=1;endArrow=none;endFill=0;" parent="WA0DGInW2srtDhoLaO1W-1" source="2i4LaCo3bFuLr-Ti20YC-11" target="2i4LaCo3bFuLr-Ti20YC-22" edge="1">
                    <mxGeometry relative="1" as="geometry">
                        <mxPoint x="445" y="120" as="sourcePoint"/>
                        <mxPoint x="445" y="480" as="targetPoint"/>
                    </mxGeometry>
                </mxCell>
                <mxCell id="2i4LaCo3bFuLr-Ti20YC-24" style="edgeStyle=orthogonalEdgeStyle;rounded=0;orthogonalLoop=1;jettySize=auto;html=1;dashed=1;endArrow=classic;endFill=1;strokeWidth=2;exitX=-0.033;exitY=0.761;exitDx=0;exitDy=0;exitPerimeter=0;entryX=1.167;entryY=0.758;entryDx=0;entryDy=0;entryPerimeter=0;" parent="WA0DGInW2srtDhoLaO1W-1" edge="1">
                    <mxGeometry relative="1" as="geometry">
                        <mxPoint x="438" y="319.6399999999999" as="sourcePoint"/>
                        <mxPoint x="290" y="320.3399999999999" as="targetPoint"/>
                        <Array as="points">
                            <mxPoint x="290.33000000000004" y="319.27"/>
                        </Array>
                    </mxGeometry>
                </mxCell>
                <mxCell id="ols5wGm_letIbzoZtpYg-0" style="edgeStyle=orthogonalEdgeStyle;rounded=0;orthogonalLoop=1;jettySize=auto;html=1;dashed=1;endArrow=classic;endFill=1;strokeWidth=2;exitX=-0.033;exitY=0.761;exitDx=0;exitDy=0;exitPerimeter=0;entryX=1.167;entryY=0.758;entryDx=0;entryDy=0;entryPerimeter=0;" parent="WA0DGInW2srtDhoLaO1W-1" edge="1">
                    <mxGeometry relative="1" as="geometry">
                        <mxPoint x="279" y="340.99999999999994" as="sourcePoint"/>
                        <mxPoint x="131" y="341.0399999999999" as="targetPoint"/>
                        <Array as="points">
                            <mxPoint x="131.33000000000004" y="339.96999999999997"/>
                        </Array>
                    </mxGeometry>
                </mxCell>
                <mxCell id="ols5wGm_letIbzoZtpYg-1" value="7. Mostrar pantalla&lt;br&gt;de inicio ()" style="text;html=1;align=center;verticalAlign=middle;resizable=0;points=[];autosize=1;" parent="WA0DGInW2srtDhoLaO1W-1" vertex="1">
                    <mxGeometry x="150" y="307.5" width="110" height="30" as="geometry"/>
                </mxCell>
            </root>
        </mxGraphModel>
    </diagram>
</mxfile>